:SAMPLES-PER-SECOND 30
:FRAME-RANGE 1-2009
:FULLY-SPECIFIED
:DEGREES
1633
root  -25.8312 39.2735 -15.5012 -179.172 -46.5815 179.095
RightUpLeg  -19.9355 -19.0618 -4.85609
RightLeg  59.3923 -6.19437 -11.6339
RightFoot  -9.49339 -0.307319 14.9542
RightToes  4.71047e-010 1.2921e-014 -6.02303e-014
Spine  8.40843 1.27703 -3.96718
Spine1  2.88305 0.773082 0.305094
HEad  3.09445 67.8505 -5.63743
LeftShoulder1  1.59721 -1.80903 -23.8168
LeftArm  -21.6499 -56.6951 -34.3018
LeftForeArm  28.8353 -22.2183 -3.83841
LeftHand  -0.38463 1.7705 12.2266
RightShoulder  9.09509 12.0504 51.1938
RightArm  17.1318 -2.71767 13.8641
RightForeArm  15.3898 9.58402 13.8244
RightHand  0.426059 1.64675 6.8886
LeftUpLeg  -14.732 11.9933 0.38581
LeftLeg  17.9304 -8.32543 -4.63985
LeftFoot  -1.32002 0.103886 -1.13455
LeftToes  2.15783e-011 -7.56106e-012 -8.20802e-012
1634
root  -26.1029 39.3967 -15.7652 -179.558 -46.0406 179.566
RightUpLeg  -20.8605 -19.2143 -5.05766
RightLeg  57.4006 -6.67439 -11.5283
RightFoot  -9.68081 -0.286096 15.0961
RightToes  4.71047e-010 1.2921e-014 -6.02303e-014
Spine  8.39927 1.13033 -3.82741
Spine1  2.91396 0.629082 0.404714
HEad  4.12483 67.7531 -4.32098
LeftShoulder1  1.50158 -1.45333 -24.0529
LeftArm  -17.6493 -57.0585 -35.9037
LeftForeArm  27.3372 -24.1341 -3.72753
LeftHand  -0.418504 1.60461 12.7528
RightShoulder  9.02528 11.9613 51.0961
RightArm  17.7473 -2.76106 13.9806
RightForeArm  14.3897 10.7427 13.206
RightHand  0.454795 1.81867 7.16957
LeftUpLeg  -13.4183 11.6993 1.21377
LeftLeg  16.9247 -7.52958 -4.73265
LeftFoot  -1.53568 0.112648 -1.2396
LeftToes  2.15783e-011 -7.56106e-012 -8.20802e-012
1635
root  -26.3596 39.5196 -16.0417 -179.734 -45.7148 179.893
RightUpLeg  -21.1839 -19.2328 -5.374
RightLeg  54.2003 -7.71189 -11.6987
RightFoot  -9.57513 -0.281415 13.9507
RightToes  4.71047e-010 1.2921e-014 -6.02303e-014
Spine  8.12937 0.90931 -3.45908
Spine1  3.14308 0.475668 0.342682
HEad  4.44998 67.2486 -3.46312
LeftShoulder1  1.46721 -1.33595 -24.0776
LeftArm  -14.3062 -53.9682 -38.877
LeftForeArm  30.1279 -26.6538 -4.11665
LeftHand  -0.713385 -0.896777 13.2967
RightShoulder  8.97761 11.9037 51.0178
RightArm  20.0747 -2.85039 14.0033
RightForeArm  12.0166 12.4395 12.3471
RightHand  0.451925 1.85329 7.08607
LeftUpLeg  -12.2094 11.2595 1.82592
LeftLeg  15.738 -6.8258 -4.72387
LeftFoot  -1.59783 0.114826 -1.23448
LeftToes  2.15783e-011 -7.56106e-012 -8.20802e-012
1636
root  -26.5667 39.6212 -16.3208 -179.885 -45.4471 -179.922
RightUpLeg  -20.6974 -18.5396 -5.79141
RightLeg  49.73 -9.26927 -11.8536
RightFoot  -9.79799 -0.250664 13.5851
RightToes  4.71047e-010 1.2921e-014 -6.02303e-014
Spine  7.96427 0.792855 -3.03662
Spine1  3.31267 0.412708 0.362142
HEad  3.47558 66.5076 -3.89107
LeftShoulder1  1.53758 -1.45236 -24.8203
LeftArm  -11.4401 -48.5138 -41.3716
LeftForeArm  33.7463 -29.4722 -4.54811
LeftHand  -1.04083 -3.50726 13.7948
RightShoulder  8.90153 11.8371 50.8088
RightArm  21.3978 -2.83589 14.0065
RightForeArm  11.3339 13.5028 11.6648
RightHand  0.439089 1.75967 6.97999
LeftUpLeg  -11.0259 11.1314 2.37954
LeftLeg  14.7478 -6.67037 -4.7872
LeftFoot  -1.69748 0.147291 -1.69056
LeftToes  2.15783e-011 -7.56106e-012 -8.20802e-012
1637
root  -26.7146 39.7213 -16.6113 -179.939 -45.4896 -179.84
RightUpLeg  -19.5154 -17.3238 -6.24991
RightLeg  43.8636 -10.5144 -10.9216
RightFoot  -9.97947 -0.213212 12.1696
RightToes  4.71047e-010 1.2921e-014 -6.02303e-014
Spine  7.9974 0.581507 -2.55884
Spine1  3.25184 0.271618 0.299916
HEad  2.14193 65.7019 -3.96112
LeftShoulder1  1.58463 -1.47779 -25.6406
LeftArm  -8.86932 -42.6501 -43.2809
LeftForeArm  35.6797 -31.8513 -4.99368
LeftHand  -1.08195 -3.81246 13.8699
RightShoulder  8.82484 11.708 50.7995
RightArm  21.6926 -2.50508 13.8783
RightForeArm  10.9075 13.7607 11.5178
RightHand  0.439721 1.89773 6.84465
LeftUpLeg  -9.92572 11.1718 2.84163
LeftLeg  13.6607 -7.0269 -4.97029
LeftFoot  -1.60888 0.148073 -1.62574
LeftToes  2.15783e-011 -7.56106e-012 -8.20802e-012
1638
root  -26.8031 39.7873 -16.9278 -179.739 -45.6719 -179.961
RightUpLeg  -17.8582 -15.4874 -6.74523
RightLeg  36.806 -11.4362 -9.29592
RightFoot  -10.074 -0.19698 11.5632
RightToes  4.71047e-010 1.2921e-014 -6.02303e-014
Spine  7.77817 0.38427 -2.23006
Spine1  3.38209 0.113492 0.339238
HEad  0.256908 64.5962 -4.49402
LeftShoulder1  1.6373 -1.49477 -26.6223
LeftArm  -6.60051 -36.5531 -44.4122
LeftForeArm  36.9023 -33.8207 -5.40157
LeftHand  -0.926903 -3.01037 13.0177
RightShoulder  8.86326 11.8394 50.5856
RightArm  20.1266 -2.26512 13.9223
RightForeArm  11.8679 13.187 11.8088
RightHand  0.435246 1.8457 6.8272
LeftUpLeg  -9.1606 11.0142 3.09443
LeftLeg  12.8181 -7.18729 -4.90558
LeftFoot  -1.6039 0.181651 -2.01955
LeftToes  2.15783e-011 -7.56106e-012 -8.20802e-012
1639
root  -26.8403 39.8208 -17.2855 -179.287 -45.8219 179.658
RightUpLeg  -15.7935 -12.4023 -7.29679
RightLeg  28.8597 -11.7795 -7.16739
RightFoot  -9.57334 -0.232908 10.8348
RightToes  4.71047e-010 1.2921e-014 -6.02303e-014
Spine  7.4728 0.281336 -1.9218
Spine1  3.56314 0.0692158 0.287973
HEad  -1.26326 63.2614 -4.8006
LeftShoulder1  1.76344 -1.67666 -27.9494
LeftArm  -5.09864 -30.3952 -44.2076
LeftForeArm  35.8229 -35.9775 -6.0077
LeftHand  -0.618335 -0.694949 11.9152
RightShoulder  8.90239 11.9076 50.5839
RightArm  18.4151 -1.84388 13.8131
RightForeArm  13.1216 12.3844 12.216
RightHand  0.423564 1.68625 6.8054
LeftUpLeg  -8.6245 11.3027 3.25299
LeftLeg  12.2816 -7.82331 -4.99495
LeftFoot  -1.71069 0.22062 -2.49709
LeftToes  2.15783e-011 -7.56106e-012 -8.20802e-012
